<svg width="400" height="400" viewBox="0 0 400 400" fill="none" xmlns="http://www.w3.org/2000/svg">
<rect width="400" height="400" fill="#F3F4F6"/>
<path d="M120 200C120 200 140 180 180 180C220 180 240 200 240 200L260 220C260 220 280 240 280 280C280 320 260 340 220 340H160C120 340 100 320 100 280C100 240 120 220 120 200Z" fill="#E5E7EB"/>
<path d="M120 200C120 200 140 180 180 180C220 180 240 200 240 200L280 220C280 220 300 240 300 280C300 320 280 340 240 340H180C140 340 120 320 120 280C120 240 120 220 120 200Z" fill="#D1D5DB"/>
<circle cx="200" cy="200" r="80" fill="#9CA3AF" opacity="0.3"/>
<text x="200" y="210" text-anchor="middle" fill="#6B7280" font-family="Arial, sans-serif" font-size="16" font-weight="500">Shoe Image</text>
</svg>